<?xml version="1.0" encoding="utf-8"?>
<!-- Generator: Adobe Illustrator 28.1.0, SVG Export Plug-In . SVG Version: 6.00 Build 0)  -->
<svg version="1.1" id="Layer_1" xmlns="http://www.w3.org/2000/svg" xmlns:xlink="http://www.w3.org/1999/xlink" x="0px" y="0px"
	 viewBox="0 0 2238.8 1507" style="enable-background:new 0 0 2238.8 1507;" xml:space="preserve">
<style type="text/css">
	.st0{fill:none;stroke:#5E4FA2;stroke-width:22.8986;}
	.st1{fill:none;stroke:#5E4FA2;stroke-width:20.9903;}
	.st2{fill:none;stroke:#4478B2;stroke-width:3.8164;}
	.st3{fill:none;stroke:#4BA0B1;stroke-width:1.9082;}
	.st4{fill:none;stroke:#4F63AB;stroke-width:28.6232;}
	.st5{fill:none;stroke:#5E4FA2;stroke-width:9.5411;}
	.st6{fill:none;stroke:#5E4FA2;stroke-width:3.8164;}
	.st7{fill:none;stroke:#4F63AB;stroke-width:7.6329;}
	.st8{fill:none;stroke:#4F63AB;stroke-width:1.9082;}
	.st9{fill:none;stroke:#5E4FA2;stroke-width:5.7246;}
	.st10{fill:none;stroke:#5E4FA2;stroke-width:32.4396;}
	.st11{fill:none;stroke:#438CB4;stroke-width:11.4493;}
	.st12{fill:none;stroke:#4F63AB;stroke-width:19.0821;}
	.st13{fill:none;stroke:#4F63AB;stroke-width:3.8164;}
	.st14{fill:none;stroke:#5CB3AC;stroke-width:1.9082;}
	.st15{fill:none;stroke:#4BA0B1;stroke-width:3.8164;}
	.st16{fill:none;stroke:#5CB3AC;stroke-width:3.8164;}
	.st17{fill:none;stroke:#4478B2;stroke-width:1.9082;}
	.st18{fill:none;stroke:#438CB4;stroke-width:7.6329;}
	.st19{fill:none;stroke:#4478B2;stroke-width:5.7246;}
	.st20{fill:none;stroke:#438CB4;stroke-width:3.8164;}
	.st21{fill:none;stroke:#4F63AB;stroke-width:5.7246;}
	.st22{fill:none;stroke:#438CB4;stroke-width:1.9082;}
	.st23{fill:none;stroke:#5E4FA2;stroke-width:7.6329;}
	.st24{fill:none;stroke:#5E4FA2;stroke-width:13.3575;}
	.st25{fill:none;stroke:#4F63AB;stroke-width:13.3575;}
	.st26{fill:none;stroke:#5E4FA2;stroke-width:1.9082;}
	.st27{fill:none;stroke:#CCEA9F;stroke-width:1.9082;}
	.st28{fill:none;stroke:#72C3A7;stroke-width:1.9082;}
	.st29{fill:none;stroke:#FDF2A8;stroke-width:1.9082;}
	.st30{fill:none;stroke:#EC6449;stroke-width:1.9082;}
	.st31{fill:none;stroke:#72C3A7;stroke-width:3.8164;}
	.st32{fill:none;stroke:#9E0142;stroke-width:5.7246;}
	.st33{fill:none;stroke:#CCEA9F;stroke-width:3.8164;}
	.st34{fill:none;stroke:#B11746;stroke-width:3.8164;}
	.st35{fill:none;stroke:#72C3A7;stroke-width:13.3575;}
	.st36{fill:none;stroke:#FDCA79;stroke-width:1.9082;}
	.st37{fill:none;stroke:#FBF8B0;stroke-width:7.6329;}
	.st38{fill:none;stroke:#F3784C;stroke-width:1.9082;}
	.st39{fill:none;stroke:#FBF8B0;stroke-width:5.7246;}
	.st40{fill:none;stroke:#89CFA5;stroke-width:1.9082;}
	.st41{fill:none;stroke:#A0D9A3;stroke-width:1.9082;}
	.st42{fill:none;stroke:#DDF1A0;stroke-width:3.8164;}
	.st43{fill:none;stroke:#FEE89A;stroke-width:1.9082;}
	.st44{fill:none;stroke:#72C3A7;stroke-width:9.5411;}
	.st45{fill:none;stroke:#FBF8B0;stroke-width:9.5411;}
	.st46{fill:none;stroke:#FEDA89;stroke-width:1.9082;}
	.st47{fill:none;stroke:#FBF8B0;stroke-width:3.8164;}
	.st48{fill:none;stroke:#CCEA9F;stroke-width:7.6329;}
	.st49{fill:none;stroke:#FBF8B0;stroke-width:1.9082;}
	.st50{fill:none;stroke:#D43F4B;stroke-width:1.9082;}
	.st51{fill:none;stroke:#FDB76B;stroke-width:3.8164;}
	.st52{fill:none;stroke:#F88E53;stroke-width:1.9082;}
	.st53{fill:none;stroke:#FDB76B;stroke-width:1.9082;}
	.st54{fill:none;stroke:#F5FAAD;stroke-width:1.9082;}
	.st55{fill:none;stroke:#F88E53;stroke-width:3.8164;}
	.st56{fill:none;stroke:#9E0142;stroke-width:1.9082;}
	.st57{fill:none;stroke:#C42C4A;stroke-width:1.9082;}
	.st58{fill:none;stroke:#FEE89A;stroke-width:7.6329;}
	.st59{fill:none;stroke:#E1524A;stroke-width:1.9082;}
	.st60{fill:none;stroke:#B11746;stroke-width:1.9082;}
	.st61{fill:none;stroke:#CCEA9F;stroke-width:5.7246;}
	.st62{fill:none;stroke:#EBF7A6;stroke-width:3.8164;}
	.st63{fill:none;stroke:#FDB76B;stroke-width:5.7246;}
	.st64{fill:none;stroke:#DDF1A0;stroke-width:1.9082;}
	.st65{fill:none;stroke:#EBF7A6;stroke-width:1.9082;}
	.st66{fill:none;stroke:#FBA35E;stroke-width:1.9082;}
	.st67{fill:none;stroke:#B7E2A1;stroke-width:1.9082;}
	.st68{font-family:'Arial-BoldMT';}
	.st69{font-size:22.7543px;}
	.st70{fill:#7B7B7B;}
	.st71{font-size:27.3052px;}
</style>
<g id="visualization" transform="translate(10,10)">
	<g>
		<rect x="1098.5" y="166.1" width="11.4" height="4.3"/>
		<rect x="1098.5" y="181.8" width="11.4" height="4.3"/>
		<rect x="1098.5" y="197.5" width="11.4" height="4.3"/>
		<rect x="1986" y="80.7" width="11.4" height="4.3"/>
		<rect x="1986" y="96.4" width="11.4" height="4.3"/>
		<rect x="1986" y="112.2" width="11.4" height="4.3"/>
		<rect x="1986" y="127.9" width="11.4" height="4.3"/>
		<rect x="1986" y="143.6" width="11.4" height="4.3"/>
		<rect x="1986" y="159.3" width="11.4" height="4.3"/>
		<rect x="1098.5" y="213.2" width="11.4" height="8.7"/>
		<rect x="1098.5" y="233.3" width="11.4" height="8.7"/>
		<rect x="1986" y="175" width="11.4" height="8.7"/>
		<rect x="1986" y="195.1" width="11.4" height="8.7"/>
		<rect x="1986" y="215.2" width="11.4" height="8.7"/>
		<rect x="1986" y="235.2" width="11.4" height="8.7"/>
		<rect x="1986" y="255.3" width="11.4" height="8.7"/>
		<rect x="1986" y="275.3" width="11.4" height="8.7"/>
		<rect x="1986" y="295.4" width="11.4" height="8.7"/>
		<rect x="1098.5" y="253.3" width="11.4" height="13"/>
		<rect x="1098.5" y="277.7" width="11.4" height="13"/>
		<rect x="1986" y="315.5" width="11.4" height="13"/>
		<rect x="1986" y="339.9" width="11.4" height="13"/>
		<rect x="1986" y="364.3" width="11.4" height="13"/>
		<rect x="1986" y="388.7" width="11.4" height="13"/>
		<rect x="1986" y="413.1" width="11.4" height="13"/>
		<rect x="1098.5" y="302.1" width="11.4" height="17.4"/>
		<rect x="1098.5" y="330.9" width="11.4" height="17.4"/>
		<rect x="1098.5" y="359.6" width="11.4" height="17.4"/>
		<rect x="1986" y="437.5" width="11.4" height="17.4"/>
		<rect x="1986" y="466.2" width="11.4" height="17.4"/>
		<rect x="1986" y="495" width="11.4" height="17.4"/>
		<rect x="1986" y="523.7" width="11.4" height="17.4"/>
		<rect x="1098.5" y="388.4" width="11.4" height="21.7"/>
		<rect x="1098.5" y="421.5" width="11.4" height="21.7"/>
		<rect x="1098.5" y="454.5" width="11.4" height="21.7"/>
		<rect x="1986" y="552.5" width="11.4" height="21.7"/>
		<rect x="1098.5" y="487.6" width="11.4" height="26.1"/>
		<rect x="1986" y="585.5" width="11.4" height="26.1"/>
		<rect x="1986" y="623" width="11.4" height="26.1"/>
		<rect x="1986" y="660.4" width="11.4" height="26.1"/>
		<rect x="1098.5" y="525.1" width="11.4" height="30.4"/>
		<rect x="1986" y="697.8" width="11.4" height="30.4"/>
		<rect x="1986" y="739.6" width="11.4" height="30.4"/>
		<rect x="1986" y="781.4" width="11.4" height="30.4"/>
		<rect x="1986" y="823.2" width="11.4" height="34.7"/>
		<rect x="1098.5" y="566.8" width="11.4" height="39.1"/>
		<rect x="211.1" y="262.8" width="11.4" height="39.1"/>
		<rect x="1986" y="869.3" width="11.4" height="39.1"/>
		<rect x="1986" y="919.7" width="11.4" height="39.1"/>
		<rect x="1098.5" y="617.3" width="11.4" height="43.4"/>
		<rect x="1098.5" y="672.1" width="11.4" height="43.4"/>
		<rect x="1986" y="970.2" width="11.4" height="43.4"/>
		<rect x="211.1" y="313.2" width="11.4" height="47.8"/>
		<rect x="1098.5" y="726.9" width="11.4" height="47.8"/>
		<rect x="1986" y="1025" width="11.4" height="47.8"/>
		<rect x="1986" y="1084.1" width="11.4" height="52.1"/>
		<rect x="1986" y="1147.6" width="11.4" height="56.4"/>
		<rect x="211.1" y="372.4" width="11.4" height="65.1"/>
		<rect x="1986" y="1215.4" width="11.4" height="65.1"/>
		<rect x="211.1" y="448.9" width="11.4" height="82.5"/>
		<rect x="1098.5" y="786" width="11.4" height="86.8"/>
		<rect x="1098.5" y="884.2" width="11.4" height="108.6"/>
		<rect x="1986" y="1291.9" width="11.4" height="108.6"/>
		<rect x="1098.5" y="1004.2" width="11.4" height="130.3"/>
		<rect x="1098.5" y="1145.8" width="11.4" height="169.3"/>
		<rect x="211.1" y="542.7" width="11.4" height="303.9"/>
		<rect x="211.1" y="858.1" width="11.4" height="360.4"/>
	</g>
	<g>
		<g>
			<path class="st0" d="M222.5,1070.8c438,0,438-104.1,876-104.1"/>
		</g>
		<g>
			<path class="st1" d="M222.5,1120.7c438,0,438-10.2,876-10.2"/>
		</g>
		<g>
			<path class="st2" d="M222.5,411.4c438,0,438,485.8,876,485.8"/>
		</g>
		<g>
			<path class="st3" d="M222.5,315.4c438,0,438-100,876-100"/>
		</g>
		<g>
			<path class="st4" d="M222.5,770.7c438,0,438,283.4,876,283.4"/>
		</g>
		<g>
			<path class="st5" d="M222.5,955.7c438,0,438-360.7,876-360.7"/>
		</g>
		<g>
			<path class="st6" d="M222.5,931.9c438,0,438-422.5,876-422.5"/>
		</g>
		<g>
			<path class="st7" d="M222.5,655.6c438,0,438-12.3,876-12.3"/>
		</g>
		<g>
			<path class="st8" d="M222.5,549.2c438,0,438-329.5,876-329.5"/>
		</g>
		<g>
			<path class="st9" d="M222.5,877.6c438,0,438-564.6,876-564.6"/>
		</g>
		<g>
			<path class="st10" d="M222.5,1181.5c438,0,438,96.7,876,96.7"/>
		</g>
		<g>
			<path class="st6" d="M222.5,866.7c438,0,438-629.1,876-629.1"/>
		</g>
		<g>
			<path class="st11" d="M222.5,518.3c438,0,438,666.6,876,666.6"/>
		</g>
		<g>
			<path class="st8" d="M222.5,601.4c438,0,438-202.1,876-202.1"/>
		</g>
		<g>
			<path class="st12" d="M222.5,825c438,0,438,394.7,876,394.7"/>
		</g>
		<g>
			<path class="st13" d="M222.5,607.9c438,0,438-182.1,876-182.1"/>
		</g>
		<g>
			<path class="st7" d="M222.5,673c438,0,438,12.1,876,12.1"/>
		</g>
		<g>
			<path class="st13" d="M222.5,686c438,0,438,66.9,876,66.9"/>
		</g>
		<g>
			<path class="st14" d="M222.5,291c438,0,438,715.4,876,715.4"/>
		</g>
		<g>
			<path class="st9" d="M222.5,912.3c438,0,438-475.7,876-475.7"/>
		</g>
		<g>
			<path class="st6" d="M222.5,923.2c438,0,438-451.3,876-451.3"/>
		</g>
		<g>
			<path class="st15" d="M222.5,356.6c438,0,438,802.2,876,802.2"/>
		</g>
		<g>
			<path class="st16" d="M222.5,297.5c438,0,438,852.7,876,852.7"/>
		</g>
		<g>
			<path class="st14" d="M222.5,264.9c438,0,438-96.7,876-96.7"/>
		</g>
		<g>
			<path class="st15" d="M222.5,343.6c438,0,438,455.4,876,455.4"/>
		</g>
		<g>
			<path class="st17" d="M222.5,374.5c438,0,438-41.5,876-41.5"/>
		</g>
		<g>
			<path class="st18" d="M222.5,487.9c438,0,438,328.5,876,328.5"/>
		</g>
		<g>
			<path class="st19" d="M222.5,422.3c438,0,438,592.7,876,592.7"/>
		</g>
		<g>
			<path class="st6" d="M222.5,901.5c438,0,438-495.7,876-495.7"/>
		</g>
		<g>
			<path class="st20" d="M222.5,501c438,0,438,405,876,405"/>
		</g>
		<g>
			<path class="st8" d="M222.5,584c438,0,438-246.6,876-246.6"/>
		</g>
		<g>
			<path class="st13" d="M222.5,642.6c438,0,438-62.7,876-62.7"/>
		</g>
		<g>
			<path class="st21" d="M222.5,557.9c438,0,438-298.1,876-298.1"/>
		</g>
		<g>
			<path class="st6" d="M222.5,888.4c438,0,438-544.5,876-544.5"/>
		</g>
		<g>
			<path class="st21" d="M222.5,627.4c438,0,438-128.9,876-128.9"/>
		</g>
		<g>
			<path class="st16" d="M222.5,280.1c438,0,438,510.2,876,510.2"/>
		</g>
		<g>
			<path class="st3" d="M222.5,350.1c438,0,438,540.6,876,540.6"/>
		</g>
		<g>
			<path class="st21" d="M222.5,571c438,0,438-286.7,876-286.7"/>
		</g>
		<g>
			<path class="st22" d="M222.5,451c438,0,438,5.7,876,5.7"/>
		</g>
		<g>
			<path class="st23" d="M222.5,1005.7c438,0,438-239.7,876-239.7"/>
		</g>
		<g>
			<path class="st15" d="M222.5,334.9c438,0,438,396.3,876,396.3"/>
		</g>
		<g>
			<path class="st24" d="M222.5,1029.6c438,0,438-171.9,876-171.9"/>
		</g>
		<g>
			<path class="st17" d="M222.5,378.9c438,0,438,16,876,16"/>
		</g>
		<g>
			<path class="st21" d="M222.5,592.7c438,0,438-226.5,876-226.5"/>
		</g>
		<g>
			<path class="st14" d="M222.5,286.6c438,0,438,599.8,876,599.8"/>
		</g>
		<g>
			<path class="st8" d="M222.5,579.6c438,0,438-275.3,876-275.3"/>
		</g>
		<g>
			<path class="st7" d="M222.5,699c438,0,438,134.7,876,134.7"/>
		</g>
		<g>
			<path class="st3" d="M222.5,328.4c438,0,438,291.1,876,291.1"/>
		</g>
		<g>
			<path class="st25" d="M222.5,722.9c438,0,438,202.6,876,202.6"/>
		</g>
		<g>
			<path class="st2" d="M222.5,398.4c438,0,438,341.5,876,341.5"/>
		</g>
		<g>
			<path class="st26" d="M222.5,895c438,0,438-520.1,876-520.1"/>
		</g>
		<g>
			<path class="st17" d="M222.5,383.2c438,0,438,157.1,876,157.1"/>
		</g>
		<g>
			<path class="st22" d="M222.5,459.7c438,0,438,113.6,876,113.6"/>
		</g>
		<g>
			<path class="st6" d="M222.5,970.9c438,0,438-314.6,876-314.6"/>
		</g>
		<g>
			<path class="st5" d="M222.5,986.1c438,0,438-281.5,876-281.5"/>
		</g>
		<g>
			<path class="st22" d="M222.5,472.7c438,0,438,201.5,876,201.5"/>
		</g>
		<g>
			<path class="st20" d="M222.5,466.2c438,0,438,164.1,876,164.1"/>
		</g>
		<g>
			<path class="st13" d="M222.5,616.5c438,0,438-153.3,876-153.3"/>
		</g>
		<g>
			<path class="st17" d="M222.5,404.9c438,0,438,400.6,876,400.6"/>
		</g>
		<g>
			<path class="st22" d="M222.5,477.1c438,0,438,269.3,876,269.3"/>
		</g>
		<g>
			<path class="st8" d="M222.5,636.1c438,0,438-91.5,876-91.5"/>
		</g>
		<g>
			<path class="st8" d="M222.5,544.9c438,0,438-361,876-361"/>
		</g>
		<g>
			<path class="st26" d="M222.5,860.2c438,0,438-660.6,876-660.6"/>
		</g>
		<g>
			<path class="st6" d="M222.5,940.6c438,0,438-389.4,876-389.4"/>
		</g>
		<g>
			<path class="st3" d="M222.5,324.1c438,0,438,211.9,876,211.9"/>
		</g>
		<g>
			<path class="st17" d="M222.5,391.9c438,0,438,231.9,876,231.9"/>
		</g>
		<g>
			<path class="st16" d="M222.5,271.4c438,0,438,258,876,258"/>
		</g>
		<g>
			<path class="st2" d="M222.5,433.1c438,0,438,734.4,876,734.4"/>
		</g>
		<g>
			<path class="st3" d="M222.5,319.7c438,0,438,70.8,876,70.8"/>
		</g>
		<g>
			<path class="st22" d="M222.5,455.4c438,0,438,34.4,876,34.4"/>
		</g>
		<g>
			<path class="st17" d="M222.5,387.5c438,0,438,181.5,876,181.5"/>
		</g>
		<g>
			<path class="st27" d="M1109.9,925.5c438,0,438-28,876-28"/>
		</g>
		<g>
			<path class="st28" d="M1109.9,1006.3c438,0,438-829.1,876-829.1"/>
		</g>
		<g>
			<path class="st27" d="M1109.9,977.6c438,0,438,279.1,876,279.1"/>
		</g>
		<g>
			<path class="st29" d="M1109.9,215.4c438,0,438,224.3,876,224.3"/>
		</g>
		<g>
			<path class="st28" d="M1109.9,1023.7c438,0,438-546.6,876-546.6"/>
		</g>
		<g>
			<path class="st30" d="M1109.9,599.4c438,0,438,285.1,876,285.1"/>
		</g>
		<g>
			<path class="st31" d="M1109.9,1012.9c438,0,438-688.7,876-688.7"/>
		</g>
		<g>
			<path class="st32" d="M1109.9,507.2c438,0,438,817.3,876,817.3"/>
		</g>
		<g>
			<path class="st33" d="M1109.9,910.3c438,0,438-203.8,876-203.8"/>
		</g>
		<g>
			<path class="st34" d="M1109.9,656.4c438,0,438,687.7,876,687.7"/>
		</g>
		<g>
			<path class="st35" d="M1109.9,1106.2c438,0,438,74,876,74"/>
		</g>
		<g>
			<path class="st31" d="M1109.9,1082.3c438,0,438-18.3,876-18.3"/>
		</g>
		<g>
			<path class="st28" d="M1109.9,1054.1c438,0,438-152.3,876-152.3"/>
		</g>
		<g>
			<path class="st29" d="M1109.9,219.7c438,0,438,522.1,876,522.1"/>
		</g>
		<g>
			<path class="st36" d="M1109.9,317.3c438,0,438,900.3,876,900.3"/>
		</g>
		<g>
			<path class="st37" d="M1109.9,1289.1c438,0,438-17.2,876-17.2"/>
		</g>
		<g>
			<path class="st38" d="M1109.9,239.8c438,0,438,682.1,876,682.1"/>
		</g>
		<g>
			<path class="st28" d="M1109.9,1088.8c438,0,438,23.5,876,23.5"/>
		</g>
		<g>
			<path class="st39" d="M1109.9,1208.8c438,0,438-487,876-487"/>
		</g>
		<g>
			<path class="st40" d="M1109.9,407.9c438,0,438,903.5,876,903.5"/>
		</g>
		<g>
			<path class="st37" d="M1109.9,1306.5c438,0,438,85.3,876,85.3"/>
		</g>
		<g>
			<path class="st41" d="M1109.9,441c438,0,438,874.8,876,874.8"/>
		</g>
		<g>
			<path class="st42" d="M1109.9,706.8c438,0,438,326.8,876,326.8"/>
		</g>
		<g>
			<path class="st43" d="M1109.9,759.4c438,0,438,280.7,876,280.7"/>
		</g>
		<g>
			<path class="st44" d="M1109.9,1067.1c438,0,438-119.2,876-119.2"/>
		</g>
		<g>
			<path class="st45" d="M1109.9,1260.9c438,0,438-135.5,876-135.5"/>
		</g>
		<g>
			<path class="st33" d="M1109.9,966.7c438,0,438,139.1,876,139.1"/>
		</g>
		<g>
			<path class="st41" d="M1109.9,428c438,0,438,447.8,876,447.8"/>
		</g>
		<g>
			<path class="st46" d="M1109.9,469.7c438,0,438,410.4,876,410.4"/>
		</g>
		<g>
			<path class="st47" d="M1109.9,1241.3c438,0,438-232.1,876-232.1"/>
		</g>
		<g>
			<path class="st48" d="M1109.9,940.7c438,0,438,55.5,876,55.5"/>
		</g>
		<g>
			<path class="st49" d="M1109.9,1156.7c438,0,438-955,876-955"/>
		</g>
		<g>
			<path class="st50" d="M1109.9,168.2c438,0,438,173.8,876,173.8"/>
		</g>
		<g>
			<path class="st51" d="M1109.9,868.5c438,0,438,488.5,876,488.5"/>
		</g>
		<g>
			<path class="st52" d="M1109.9,346.1c438,0,438,956.7,876,956.7"/>
		</g>
		<g>
			<path class="st53" d="M1109.9,788.2c438,0,438-566.5,876-566.5"/>
		</g>
		<g>
			<path class="st47" d="M1109.9,1176.2c438,0,438-668.2,876-668.2"/>
		</g>
		<g>
			<path class="st28" d="M1109.9,1028c438,0,438-526.6,876-526.6"/>
		</g>
		<g>
			<path class="st40" d="M1109.9,403.6c438,0,438,818.4,876,818.4"/>
		</g>
		<g>
			<path class="st51" d="M1109.9,825.1c438,0,438-30.7,876-30.7"/>
		</g>
		<g>
			<path class="st38" d="M1109.9,235.4c438,0,438,636,876,636"/>
		</g>
		<g>
			<path class="st46" d="M1109.9,461.1c438,0,438-94.6,876-94.6"/>
		</g>
		<g>
			<path class="st36" d="M1109.9,313c438,0,438,274.7,876,274.7"/>
		</g>
		<g>
			<path class="st41" d="M1109.9,436.7c438,0,438,717.4,876,717.4"/>
		</g>
		<g>
			<path class="st27" d="M1109.9,921.1c438,0,438-69.8,876-69.8"/>
		</g>
		<g>
			<path class="st52" d="M1109.9,341.7c438,0,438,808,876,808"/>
		</g>
		<g>
			<path class="st30" d="M1109.9,603.7c438,0,438,733.8,876,733.8"/>
		</g>
		<g>
			<path class="st27" d="M1109.9,903.8c438,0,438-294.3,876-294.3"/>
		</g>
		<g>
			<path class="st49" d="M1109.9,1230.5c438,0,438-420.9,876-420.9"/>
		</g>
		<g>
			<path class="st54" d="M1109.9,264.2c438,0,438,519.4,876,519.4"/>
		</g>
		<g>
			<path class="st49" d="M1109.9,1195.7c438,0,438-548.9,876-548.9"/>
		</g>
		<g>
			<path class="st49" d="M1109.9,1165.3c438,0,438-814.6,876-814.6"/>
		</g>
		<g>
			<path class="st55" d="M1109.9,335.2c438,0,438,492.3,876,492.3"/>
		</g>
		<g>
			<path class="st56" d="M1109.9,489.8c438,0,438-272.5,876-272.5"/>
		</g>
		<g>
			<path class="st54" d="M1109.9,255.5c438,0,438,212.9,876,212.9"/>
		</g>
		<g>
			<path class="st51" d="M1109.9,846.8c438,0,438,250.3,876,250.3"/>
		</g>
		<g>
			<path class="st27" d="M1109.9,886.4c438,0,438-803.5,876-803.5"/>
		</g>
		<g>
			<path class="st57" d="M1109.9,288.6c438,0,438,1009.8,876,1009.8"/>
		</g>
		<g>
			<path class="st49" d="M1109.9,1152.3c438,0,438-970.8,876-970.8"/>
		</g>
		<g>
			<path class="st27" d="M1109.9,929.8c438,0,438,5.1,876,5.1"/>
		</g>
		<g>
			<path class="st46" d="M1109.9,474.1c438,0,438,752.2,876,752.2"/>
		</g>
		<g>
			<path class="st58" d="M1109.9,744.3c438,0,438-145.7,876-145.7"/>
		</g>
		<g>
			<path class="st43" d="M1109.9,733.4c438,0,438-285.1,876-285.1"/>
		</g>
		<g>
			<path class="st40" d="M1109.9,399.2c438,0,438,527,876,527"/>
		</g>
		<g>
			<path class="st49" d="M1109.9,1247.8c438,0,438-177.3,876-177.3"/>
		</g>
		<g>
			<path class="st59" d="M1109.9,374.8c438,0,438,932.3,876,932.3"/>
		</g>
		<g>
			<path class="st28" d="M1109.9,1036.7c438,0,438-356.8,876-356.8"/>
		</g>
		<g>
			<path class="st27" d="M1109.9,890.8c438,0,438-792.1,876-792.1"/>
		</g>
		<g>
			<path class="st36" d="M1109.9,308.7c438,0,438,188.5,876,188.5"/>
		</g>
		<g>
			<path class="st43" d="M1109.9,772.5c438,0,438,578.1,876,578.1"/>
		</g>
		<g>
			<path class="st60" d="M1109.9,632.5c438,0,438,122.3,876,122.3"/>
		</g>
		<g>
			<path class="st31" d="M1109.9,1130.1c438,0,438,248.7,876,248.7"/>
		</g>
		<g>
			<path class="st51" d="M1109.9,833.8c438,0,438,11.1,876,11.1"/>
		</g>
		<g>
			<path class="st61" d="M1109.9,955.9c438,0,438,97.3,876,97.3"/>
		</g>
		<g>
			<path class="st39" d="M1109.9,1221.8c438,0,438-458.3,876-458.3"/>
		</g>
		<g>
			<path class="st43" d="M1109.9,768.1c438,0,438,471.2,876,471.2"/>
		</g>
		<g>
			<path class="st59" d="M1109.9,361.8c438,0,438-247.5,876-247.5"/>
		</g>
		<g>
			<path class="st62" d="M1109.9,546.8c438,0,438,686,876,686"/>
		</g>
		<g>
			<path class="st63" d="M1109.9,857.7c438,0,438,390.3,876,390.3"/>
		</g>
		<g>
			<path class="st30" d="M1109.9,573.3c438,0,438-376.1,876-376.1"/>
		</g>
		<g>
			<path class="st34" d="M1109.9,643.3c438,0,438,192.8,876,192.8"/>
		</g>
		<g>
			<path class="st27" d="M1109.9,973.3c438,0,438,189.5,876,189.5"/>
		</g>
		<g>
			<path class="st64" d="M1109.9,713.3c438,0,438,377.3,876,377.3"/>
		</g>
		<g>
			<path class="st61" d="M1109.9,986.3c438,0,438,381.6,876,381.6"/>
		</g>
		<g>
			<path class="st64" d="M1109.9,682.9c438,0,438-283.4,876-283.4"/>
		</g>
		<g>
			<path class="st34" d="M1109.9,626c438,0,438,43.1,876,43.1"/>
		</g>
		<g>
			<path class="st42" d="M1109.9,698.1c438,0,438,280.7,876,280.7"/>
		</g>
		<g>
			<path class="st46" d="M1109.9,465.4c438,0,438,285.1,876,285.1"/>
		</g>
		<g>
			<path class="st39" d="M1109.9,1187.1c438,0,438-619.4,876-619.4"/>
		</g>
		<g>
			<path class="st28" d="M1109.9,1049.8c438,0,438-194,876-194"/>
		</g>
		<g>
			<path class="st49" d="M1109.9,1234.8c438,0,438-328.6,876-328.6"/>
		</g>
		<g>
			<path class="st28" d="M1109.9,1041.1c438,0,438-328,876-328"/>
		</g>
		<g>
			<path class="st53" d="M1109.9,792.5c438,0,438-421.8,876-421.8"/>
		</g>
		<g>
			<path class="st27" d="M1109.9,899.4c438,0,438-524.3,876-524.3"/>
		</g>
		<g>
			<path class="st65" d="M1109.9,553.3c438,0,438,779.9,876,779.9"/>
		</g>
		<g>
			<path class="st66" d="M1109.9,183.9c438,0,438,1110.2,876,1110.2"/>
		</g>
		<g>
			<path class="st43" d="M1109.9,763.8c438,0,438,394.7,876,394.7"/>
		</g>
		<g>
			<path class="st42" d="M1109.9,689.5c438,0,438,201.5,876,201.5"/>
		</g>
		<g>
			<path class="st59" d="M1109.9,370.5c438,0,438,102.3,876,102.3"/>
		</g>
		<g>
			<path class="st67" d="M1109.9,199.7c438,0,438,355,876,355"/>
		</g>
		<g>
			<path class="st27" d="M1109.9,895.1c438,0,438-577.5,876-577.5"/>
		</g>
		<g>
			<path class="st49" d="M1109.9,1169.7c438,0,438-688.3,876-688.3"/>
		</g>
		<g>
			<path class="st47" d="M1109.9,1276.1c438,0,438-76.4,876-76.4"/>
		</g>
		<g>
			<path class="st40" d="M1109.9,394.9c438,0,438,164.1,876,164.1"/>
		</g>
		<g>
			<path class="st60" d="M1109.9,619.5c438,0,438-273.1,876-273.1"/>
		</g>
		<g>
			<path class="st43" d="M1109.9,729.1c438,0,438-305.1,876-305.1"/>
		</g>
		<g>
			<path class="st59" d="M1109.9,366.1c438,0,438-236.1,876-236.1"/>
		</g>
		<g>
			<path class="st30" d="M1109.9,590.7c438,0,438,43.1,876,43.1"/>
		</g>
		<g>
			<path class="st27" d="M1109.9,916.8c438,0,438-115.9,876-115.9"/>
		</g>
		<g>
			<path class="st62" d="M1109.9,529.4c438,0,438-136.4,876-136.4"/>
		</g>
		<g>
			<path class="st30" d="M1109.9,586.4c438,0,438-166.8,876-166.8"/>
		</g>
		<g>
			<path class="st49" d="M1109.9,1200.1c438,0,438-515.8,876-515.8"/>
		</g>
		<g>
			<path class="st41" d="M1109.9,423.6c438,0,438-8.4,876-8.4"/>
		</g>
		<g>
			<path class="st64" d="M1109.9,674.3c438,0,438-432.5,876-432.5"/>
		</g>
		<g>
			<path class="st60" d="M1109.9,636.8c438,0,438,151.1,876,151.1"/>
		</g>
		<g>
			<path class="st28" d="M1109.9,1019.4c438,0,438-566.7,876-566.7"/>
		</g>
		<g>
			<path class="st28" d="M1109.9,1123.6c438,0,438,137.4,876,137.4"/>
		</g>
		<g>
			<path class="st51" d="M1109.9,807.7c438,0,438-167.4,876-167.4"/>
		</g>
		<g>
			<path class="st40" d="M1109.9,390.5c438,0,438,53.5,876,53.5"/>
		</g>
		<g>
			<path class="st56" d="M1109.9,494.1c438,0,438,131,876,131"/>
		</g>
		<g>
			<path class="st49" d="M1109.9,1161c438,0,438-899.2,876-899.2"/>
		</g>
		<g>
			<path class="st43" d="M1109.9,755.1c438,0,438,230.3,876,230.3"/>
		</g>
		<g>
			<path class="st41" d="M1109.9,432.3c438,0,438,498.3,876,498.3"/>
		</g>
		<g>
			<path class="st28" d="M1109.9,1032.4c438,0,438-493.5,876-493.5"/>
		</g>
		<g>
			<path class="st51" d="M1109.9,799.1c438,0,438-266.6,876-266.6"/>
		</g>
		<g>
			<path class="st65" d="M1109.9,540.3c438,0,438,432.1,876,432.1"/>
		</g>
		<g>
			<path class="st60" d="M1109.9,649.9c438,0,438,377.3,876,377.3"/>
		</g>
		<g>
			<path class="st53" d="M1109.9,818.6c438,0,438-118.6,876-118.6"/>
		</g>
		<g>
			<path class="st57" d="M1109.9,279.9c438,0,438-42.5,876-42.5"/>
		</g>
		<g>
			<path class="st46" d="M1109.9,456.7c438,0,438-179.2,876-179.2"/>
		</g>
		<g>
			<path class="st36" d="M1109.9,304.3c438,0,438-6.7,876-6.7"/>
		</g>
		<g>
			<path class="st30" d="M1109.9,577.7c438,0,438-295.8,876-295.8"/>
		</g>
		<g>
			<path class="st57" d="M1109.9,284.2c438,0,438,241.6,876,241.6"/>
		</g>
		<g>
			<path class="st30" d="M1109.9,595.1c438,0,438,67.5,876,67.5"/>
		</g>
		<g>
			<path class="st54" d="M1109.9,259.8c438,0,438,486.3,876,486.3"/>
		</g>
		<g>
			<path class="st53" d="M1109.9,814.2c438,0,438-138.6,876-138.6"/>
		</g>
		<g>
			<path class="st56" d="M1109.9,498.5c438,0,438,587.8,876,587.8"/>
		</g>
		<g>
			<path class="st30" d="M1109.9,569c438,0,438-423.2,876-423.2"/>
		</g>
		<g>
			<path class="st49" d="M1109.9,1148c438,0,438-986.5,876-986.5"/>
		</g>
		<g>
			<path class="st65" d="M1109.9,535.9c438,0,438,93.6,876,93.6"/>
		</g>
		<g>
			<path class="st64" d="M1109.9,678.6c438,0,438-421.1,876-421.1"/>
		</g>
		<g>
			<path class="st53" d="M1109.9,840.3c438,0,438,204.2,876,204.2"/>
		</g>
		<g>
			<path class="st28" d="M1109.9,1045.4c438,0,438-240.2,876-240.2"/>
		</g>
		<g>
			<path class="st30" d="M1109.9,582c438,0,438-280.1,876-280.1"/>
		</g>
	</g>
	<g>
		<text transform="matrix(1 0 0 1 1119.0199 167.0415)" class="st68 st69">4.7</text>
		<text transform="matrix(1 0 0 1 1119.0199 182.7597)" class="st68 st69">5.4</text>
		<text transform="matrix(1 0 0 1 1119.0199 198.4799)" class="st68 st69">6.6</text>
		<text transform="matrix(1 0 0 1 1701.2289 81.7129)" class="st68 st69">Santibañez Boric, Mónica</text>
		<text transform="matrix(1 0 0 1 1740.3822 97.4331)" class="st68 st69">Ruiz Balart, Macarena</text>
		<text transform="matrix(1 0 0 1 1746.7162 113.1508)" class="st68 st69">Stange Marcus, Hans</text>
		<text transform="matrix(1 0 0 1 1745.4926 128.8711)" class="st68 st69">Molina Oyarzún, Raúl</text>
		<text transform="matrix(1 0 0 1 1715.1176 144.5893)" class="st68 st69">Silva Roquefort, Rebeca</text>
		<text transform="matrix(1 0 0 1 1740.016 160.3081)" class="st68 st69">Mora Briones, Alfredo</text>
		<text transform="matrix(1 0 0 1 1119.0199 216.3711)" class="st68 st69">5.9</text>
		<text transform="matrix(1 0 0 1 1119.0199 236.4311)" class="st68 st69">5.2</text>
		<text transform="matrix(1 0 0 1 1724.3744 178.1977)" class="st68 st69">Vico Sánchez, Mauricio</text>
		<text transform="matrix(1 0 0 1 1772.0472 198.2612)" class="st68 st69">Perelli Soto, Bruno</text>
		<text transform="matrix(1 0 0 1 1702.5062 218.3213)" class="st68 st69">Lepe Muñoz, Juan Carlos</text>
		<text transform="matrix(1 0 0 1 1754.2592 238.3818)" class="st68 st69">Perea Morales, René</text>
		<text transform="matrix(1 0 0 1 1739.1039 258.4443)" class="st68 st69">Méndez Olivares, Iván</text>
		<text transform="matrix(1 0 0 1 1673.3529 278.5044)" class="st68 st69">Benavides Bermúdez, Paola</text>
		<text transform="matrix(1 0 0 1 1752.182 298.5659)" class="st68 st69">Jove Avilés, Trinidad</text>
		<text transform="matrix(1 0 0 1 1119.0199 258.666)" class="st68 st69">6.1</text>
		<text transform="matrix(1 0 0 1 1119.0199 283.0678)" class="st68 st69">4.6</text>
		<text transform="matrix(1 0 0 1 1739.1478 320.7973)" class="st68 st69">Gómez Moya, Cristián</text>
		<text transform="matrix(1 0 0 1 1768.2025 345.2007)" class="st68 st69">Reyes León, Daniel</text>
		<text transform="matrix(1 0 0 1 1659.5179 369.6059)" class="st68 st69">Zorzano Betancourt, Osvaldo</text>
		<text transform="matrix(1 0 0 1 1653.1967 394.0088)" class="st68 st69">Maldonado de la Fuente, Felix</text>
		<text transform="matrix(1 0 0 1 1627.8646 418.4121)" class="st68 st69">Pradenas Guentherodt, Gabriela</text>
		<text transform="matrix(1 0 0 1 1119.0199 309.6416)" class="st68 st69">5.6</text>
		<text transform="matrix(1 0 0 1 1119.0199 338.3857)" class="st68 st69">5.3</text>
		<text transform="matrix(1 0 0 1 1119.0199 367.1333)" class="st68 st69">4.8</text>
		<text transform="matrix(1 0 0 1 1739.5375 444.9843)" class="st68 st69">Tapia Reyes, Mauricio</text>
		<text transform="matrix(1 0 0 1 1768.2367 473.7309)" class="st68 st69">Lares López, Lorna</text>
		<text transform="matrix(1 0 0 1 1727.7816 502.476)" class="st68 st69">Nuñez Gutiérrez, Pablo</text>
		<text transform="matrix(1 0 0 1 1718.5267 531.2212)" class="st68 st69">Marín Pacheco, Antonio</text>
		<text transform="matrix(1 0 0 1 1119.0199 398.0468)" class="st68 st69">6.8</text>
		<text transform="matrix(1 0 0 1 1119.0199 431.1352)" class="st68 st69">6.7</text>
		<text transform="matrix(1 0 0 1 1119.0199 464.2226)" class="st68 st69">5.7</text>
		<text transform="matrix(1 0 0 1 1667.0531 562.1372)" class="st68 st69">Pagueguy Fenner, Sebastián</text>
		<text transform="matrix(1 0 0 1 1119.0199 499.4819)" class="st68 st69">4</text>
		<text transform="matrix(1 0 0 1 1720.1039 597.394)" class="st68 st69">Gatica Ramírez, Pamela</text>
		<text transform="matrix(1 0 0 1 1696.1176 634.8247)" class="st68 st69">Morales Mujica, María Paz</text>
		<text transform="matrix(1 0 0 1 1740.4056 672.2534)" class="st68 st69">Young Araya, Mariana</text>
		<text transform="matrix(1 0 0 1 1119.0199 539.0796)" class="st68 st69">6.2</text>
		<text transform="matrix(1 0 0 1 1734.0707 711.853)" class="st68 st69">Osses Flores, Roberto</text>
		<text transform="matrix(1 0 0 1 1698.6947 753.6245)" class="st68 st69">Donoso Cisternas, Sergio</text>
		<text transform="matrix(1 0 0 1 1682.2308 795.397)" class="st68 st69">De la Sotta Lazzerini, Paola</text>
		<text transform="matrix(1 0 0 1 1720.2494 839.3374)" class="st68 st69">Soto Calquín, Leonardo</text>
		<text transform="matrix(1 0 0 1 1119.0199 585.1938)" class="st68 st69">5</text>
		<text transform="matrix(1 0 0 1 231.6014 281.1167)" class="st68 st69">Diseñador</text>
		<text transform="matrix(1 0 0 1 1730.2826 887.6216)" class="st68 st69">Cortez Orellana, Felipe</text>
		<text transform="matrix(1 0 0 1 1683.5424 938.0776)" class="st68 st69">Castillo Espinoza, Eduardo</text>
		<text transform="matrix(1 0 0 1 1119.0199 637.8188)" class="st68 st69">4.5</text>
		<text transform="matrix(1 0 0 1 1119.0199 692.6177)" class="st68 st69">6.3</text>
		<text transform="matrix(1 0 0 1 1754.3363 990.7046)" class="st68 st69">Abud Carrillo, Jenny</text>
		<text transform="matrix(1 0 0 1 231.6014 335.9131)" class="st68 st69">Diseñador con mención Industrial y Servicios</text>
		<text transform="matrix(1 0 0 1 1119.0199 749.5854)" class="st68 st69">5.8</text>
		<text transform="matrix(1 0 0 1 1702.4388 1047.6733)" class="st68 st69">Wechsler Pizarro, Andrea</text>
		<text transform="matrix(1 0 0 1 1678.476 1108.9819)" class="st68 st69">Dueñas Santander, Rodrigo</text>
		<text transform="matrix(1 0 0 1 1726.4955 1174.6333)" class="st68 st69">Jacob Dazarola, Rubén</text>
		<text transform="matrix(1 0 0 1 231.6014 403.7358)" class="st68 st69">Diseñadora</text>
		<text transform="matrix(1 0 0 1 1758.0697 1246.7983)" class="st68 st69">Ode Saleh, Verónica</text>
		<text transform="matrix(1 0 0 1 231.6014 488.9267)" class="st68 st69">Diseñador con mención en Visualidad y Medios</text>
		<text transform="matrix(1 0 0 1 1119.0199 828.2642)" class="st68 st69">5.5</text>
		<text transform="matrix(1 0 0 1 1119.0199 937.3354)" class="st68 st69">6.5</text>
		<text transform="matrix(1 0 0 1 1673.4418 1345.0171)" class="st68 st69">Domínguez González, Pablo</text>
		<text transform="matrix(1 0 0 1 1119.0199 1068.1187)" class="st68 st69">7</text>
		<text transform="matrix(1 0 0 1 1119.0199 1229.2935)" class="st68 st69">6</text>
		<text transform="matrix(1 0 0 1 231.6014 693.5259)" class="st68 st69">Diseñadora con mención Industrial y Servicios</text>
		<text transform="matrix(1 0 0 1 231.6014 1037.0649)" class="st68 st69">Diseñadora con mención en Visualidad y Medios</text>
	</g>
	<g>
		<text transform="matrix(1 0 0 1 1010.1614 156.9497)" class="st70 st68 st71">nota_proyecto</text>
		<text transform="matrix(1 0 0 1 1921.8597 71.6211)" class="st70 st68 st71">profe_guia</text>
		<text transform="matrix(1 0 0 1 102.2786 253.6557)" class="st70 st68 st71">titulo_profesional</text>
	</g>
</g>
</svg>
