<?xml version="1.0" encoding="utf-8"?>
<!-- Generator: Adobe Illustrator 28.1.0, SVG Export Plug-In . SVG Version: 6.00 Build 0)  -->
<svg version="1.1" id="Layer_1" xmlns="http://www.w3.org/2000/svg" xmlns:xlink="http://www.w3.org/1999/xlink" x="0px" y="0px"
	 viewBox="0 0 406.7 303.2" style="enable-background:new 0 0 406.7 303.2;" xml:space="preserve">
<style type="text/css">
	.st0{fill:#FF7F0E;}
	.st1{fill:#1F77B4;}
	.st2{fill:#2CA02C;}
	.st3{fill:none;stroke:#000000;}
	.st4{font-family:'ArialMT';}
	.st5{font-size:5.0525px;}
	.st6{fill:#7B7B7B;}
	.st7{font-family:'Arial-BoldMT';}
	.st8{font-size:6.0631px;}
	.st9{fill:none;stroke:#CCCCCC;}
</style>
<g id="viz">
	<g transform="translate(0,0)">
		<g transform="translate(50,20)">
			<g>
				<rect id="undefined_-_Inscripciones" x="-22.2" y="204.7" class="st0" width="16.5" height="68.4"/>
				<rect id="undefined_-_Aprueban" x="-5.2" y="266" class="st1" width="16.5" height="7.1"/>
				<rect id="undefined_-_Reprueban" x="11.8" y="211.7" class="st2" width="16.5" height="61.3"/>
				
					<rect id="undefined_-_Inscripciones_00000152262165266855062420000012833362302265011602_" x="31.3" y="169.3" class="st0" width="16.5" height="103.7"/>
				
					<rect id="undefined_-_Aprueban_00000034769724807831358390000009490223315124747949_" x="48.3" y="249.5" class="st1" width="16.5" height="23.6"/>
				
					<rect id="undefined_-_Reprueban_00000071545307682510049300000014762010516987394747_" x="65.2" y="192.9" class="st2" width="16.5" height="80.2"/>
				
					<rect id="undefined_-_Inscripciones_00000147221158654246422780000005588168133727774354_" x="84.7" y="108" class="st0" width="16.5" height="165"/>
				
					<rect id="undefined_-_Aprueban_00000137127987331782524950000012698045325150337967_" x="101.7" y="247.1" class="st1" width="16.5" height="25.9"/>
				
					<rect id="undefined_-_Reprueban_00000157272994324730662840000006289193924263198614_" x="118.7" y="133.9" class="st2" width="16.5" height="139.1"/>
				
					<rect id="undefined_-_Inscripciones_00000183957398817452432980000003628419526418045370_" x="138.2" y="115.1" class="st0" width="16.5" height="158"/>
				
					<rect id="undefined_-_Aprueban_00000103266396533032044540000004499582200264167087_" x="155.2" y="225.9" class="st1" width="16.5" height="47.2"/>
				
					<rect id="undefined_-_Reprueban_00000183242563884977004050000006584442646933159096_" x="172.2" y="162.2" class="st2" width="16.5" height="110.8"/>
				
					<rect id="undefined_-_Inscripciones_00000124145441034466402980000004086929744860773029_" x="191.7" y="42" class="st0" width="16.5" height="231.1"/>
				
					<rect id="undefined_-_Aprueban_00000037685850744521885880000005100125414424618645_" x="208.7" y="143.4" class="st1" width="16.5" height="129.7"/>
				
					<rect id="undefined_-_Reprueban_00000077318574000824664900000016788802467150814593_" x="225.7" y="171.7" class="st2" width="16.5" height="101.4"/>
				
					<rect id="undefined_-_Inscripciones_00000132791111394847811320000015758862901880947378_" x="245.2" y="131.6" class="st0" width="16.5" height="141.5"/>
				
					<rect id="undefined_-_Aprueban_00000023993952731274201030000012639730209385300368_" x="262.2" y="181.1" class="st1" width="16.5" height="92"/>
				
					<rect id="undefined_-_Reprueban_00000089545791956751533910000002407116671461741997_" x="279.2" y="223.5" class="st2" width="16.5" height="49.5"/>
				
					<rect id="undefined_-_Inscripciones_00000031901915881394156380000014409883879260505985_" x="298.7" y="-9.9" class="st0" width="16.5" height="282.9"/>
				
					<rect id="undefined_-_Aprueban_00000038412507646869251720000013248906349184276128_" x="315.7" y="110.4" class="st1" width="16.5" height="162.7"/>
				
					<rect id="undefined_-_Reprueban_00000170277879831593878520000007265162798337240992_" x="332.7" y="152.8" class="st2" width="16.5" height="120.3"/>
			</g>
			<g id="xAxis" transform="translate(0,560)">
				<path class="st3" d="M-24.5-286.7h376.4"/>
				<g transform="translate(54.91941636467676,0)">
					<line class="st3" x1="-51.9" y1="-287" x2="-51.9" y2="-283.9"/>
					<text transform="matrix(1 0 0 1 -59.7745 -278.8184)" class="st4 st5">2021-2</text>
				</g>
				<g transform="translate(160.77961090978454,0)">
					<line class="st3" x1="-104.3" y1="-287" x2="-104.3" y2="-283.9"/>
					<text transform="matrix(1 0 0 1 -112.1484 -278.8184)" class="st4 st5">2022-1</text>
				</g>
				<g transform="translate(266.63980545489227,0)">
					<line class="st3" x1="-156.7" y1="-287" x2="-156.7" y2="-283.9"/>
					<text transform="matrix(1 0 0 1 -164.5222 -278.8184)" class="st4 st5">2022-2</text>
				</g>
				<g transform="translate(372.5,0)">
					<line class="st3" x1="-209" y1="-287" x2="-209" y2="-283.9"/>
					<text transform="matrix(1 0 0 1 -216.8961 -278.8184)" class="st4 st5">2023-1</text>
				</g>
				<g transform="translate(478.3601945451078,0)">
					<line class="st3" x1="-261.4" y1="-287" x2="-261.4" y2="-283.9"/>
					<text transform="matrix(1 0 0 1 -269.27 -278.8184)" class="st4 st5">2023-2</text>
				</g>
				<g transform="translate(584.2203890902156,0)">
					<line class="st3" x1="-313.8" y1="-287" x2="-313.8" y2="-283.9"/>
					<text transform="matrix(1 0 0 1 -321.6439 -278.8184)" class="st4 st5">2024-1</text>
				</g>
				<g transform="translate(690.0805836353233,0)">
					<line class="st3" x1="-366.2" y1="-287" x2="-366.2" y2="-283.9"/>
					<text transform="matrix(1 0 0 1 -374.0177 -278.8184)" class="st4 st5">2024-2</text>
				</g>
			</g>
			<g id="yAxis">
				<path class="st3" d="M-24.5,273.3V-9.6"/>
				<g transform="translate(0,560.5)">
					<line class="st3" x1="-24.7" y1="-287.2" x2="-27.8" y2="-287.2"/>
					<text transform="matrix(1 0 0 1 -32.0944 -285.582)" class="st4 st5">0</text>
				</g>
				<g transform="translate(0,513.8333333333333)">
					<line class="st3" x1="-24.7" y1="-264.1" x2="-27.8" y2="-264.1"/>
					<text transform="matrix(1 0 0 1 -34.9049 -262.4944)" class="st4 st5">10</text>
				</g>
				<g transform="translate(0,467.1666666666667)">
					<line class="st3" x1="-24.7" y1="-241" x2="-27.8" y2="-241"/>
					<text transform="matrix(1 0 0 1 -34.9049 -239.4069)" class="st4 st5">20</text>
				</g>
				<g transform="translate(0,420.5)">
					<line class="st3" x1="-24.7" y1="-217.9" x2="-27.8" y2="-217.9"/>
					<text transform="matrix(1 0 0 1 -34.9049 -216.3188)" class="st4 st5">30</text>
				</g>
				<g transform="translate(0,373.83333333333337)">
					<line class="st3" x1="-24.7" y1="-194.8" x2="-27.8" y2="-194.8"/>
					<text transform="matrix(1 0 0 1 -34.9049 -193.2303)" class="st4 st5">40</text>
				</g>
				<g transform="translate(0,327.16666666666663)">
					<line class="st3" x1="-24.7" y1="-171.8" x2="-27.8" y2="-171.8"/>
					<text transform="matrix(1 0 0 1 -34.9049 -170.1422)" class="st4 st5">50</text>
				</g>
				<g transform="translate(0,280.5)">
					<line class="st3" x1="-24.7" y1="-148.7" x2="-27.8" y2="-148.7"/>
					<text transform="matrix(1 0 0 1 -34.9049 -147.0542)" class="st4 st5">60</text>
				</g>
				<g transform="translate(0,233.83333333333331)">
					<line class="st3" x1="-24.7" y1="-125.6" x2="-27.8" y2="-125.6"/>
					<text transform="matrix(1 0 0 1 -34.9049 -123.9657)" class="st4 st5">70</text>
				</g>
				<g transform="translate(0,187.16666666666669)">
					<line class="st3" x1="-24.7" y1="-102.5" x2="-27.8" y2="-102.5"/>
					<text transform="matrix(1 0 0 1 -34.9049 -100.8776)" class="st4 st5">80</text>
				</g>
				<g transform="translate(0,140.5)">
					<line class="st3" x1="-24.7" y1="-79.4" x2="-27.8" y2="-79.4"/>
					<text transform="matrix(1 0 0 1 -34.9049 -77.7896)" class="st4 st5">90</text>
				</g>
				<g transform="translate(0,93.83333333333331)">
					<line class="st3" x1="-24.7" y1="-56.3" x2="-27.8" y2="-56.3"/>
					<text transform="matrix(1 0 0 1 -37.7145 -54.7015)" class="st4 st5">100</text>
				</g>
				<g transform="translate(0,47.166666666666686)">
					<line class="st3" x1="-24.7" y1="-33.2" x2="-27.8" y2="-33.2"/>
					<text transform="matrix(1 0 0 1 -37.3395 -31.6134)" class="st4 st5">110</text>
				</g>
				<g transform="translate(0,0.5)">
					<line class="st3" x1="-24.7" y1="-10.1" x2="-27.8" y2="-10.1"/>
					<text transform="matrix(1 0 0 1 -37.7145 -8.5254)" class="st4 st5">120</text>
				</g>
			</g>
			<text transform="matrix(1 0 0 1 338.8705 271.0273)" class="st6 st7 st8">Sets</text>
			<text transform="matrix(1 0 0 1 -22.7164 -4.6934)" class="st6 st7 st8">Value</text>
		</g>
	</g>
	<g id="grid">
		<rect x="0" class="st9" width="406.7" height="303.2"/>
	</g>
</g>
</svg>
