<?xml version="1.0" encoding="utf-8"?>
<!-- Generator: Adobe Illustrator 28.1.0, SVG Export Plug-In . SVG Version: 6.00 Build 0)  -->
<svg version="1.1" id="Layer_1" xmlns="http://www.w3.org/2000/svg" xmlns:xlink="http://www.w3.org/1999/xlink" x="0px" y="0px"
	 viewBox="0 0 805 600" style="enable-background:new 0 0 805 600;" xml:space="preserve">
<style type="text/css">
	.st0{fill:#FFFFFF;}
	.st1{fill:#FF7F0E;}
	.st2{fill:#1F77B4;}
	.st3{fill:#2CA02C;}
	.st4{fill:none;stroke:#000000;}
	.st5{font-family:'ArialMT';}
	.st6{font-size:10px;}
	.st7{fill:#7B7B7B;}
	.st8{font-family:'Arial-BoldMT';}
	.st9{font-size:12px;}
	.st10{fill:none;stroke:#CCCCCC;}
</style>
<rect id="background" class="st0" width="805" height="600"/>
<g id="viz">
	<g transform="translate(0,0)">
		<g transform="translate(50,20)">
			<g id="Inscripciones">
				<rect x="1" y="492.3" class="st1" width="105.3" height="67.7"/>
				<rect x="107.3" y="457.3" class="st1" width="105.3" height="102.7"/>
				<rect x="213.6" y="396.7" class="st1" width="105.3" height="163.3"/>
				<rect x="319.9" y="403.7" class="st1" width="105.3" height="156.3"/>
				<rect x="426.1" y="331.3" class="st1" width="105.3" height="228.7"/>
				<rect x="532.4" y="420" class="st1" width="105.3" height="140"/>
				<rect x="638.7" y="280" class="st1" width="105.3" height="280"/>
			</g>
			<g id="Aprueban">
				<rect x="1" y="485.3" class="st2" width="105.3" height="7"/>
				<rect x="107.3" y="434" class="st2" width="105.3" height="23.3"/>
				<rect x="213.6" y="371" class="st2" width="105.3" height="25.7"/>
				<rect x="319.9" y="357" class="st2" width="105.3" height="46.7"/>
				<rect x="426.1" y="203" class="st2" width="105.3" height="128.3"/>
				<rect x="532.4" y="329" class="st2" width="105.3" height="91"/>
				<rect x="638.7" y="119" class="st2" width="105.3" height="161"/>
			</g>
			<g id="Reprueban">
				<rect x="1" y="424.7" class="st3" width="105.3" height="60.7"/>
				<rect x="107.3" y="354.7" class="st3" width="105.3" height="79.3"/>
				<rect x="213.6" y="233.3" class="st3" width="105.3" height="137.7"/>
				<rect x="319.9" y="247.3" class="st3" width="105.3" height="109.7"/>
				<rect x="426.1" y="102.7" class="st3" width="105.3" height="100.3"/>
				<rect x="532.4" y="280" class="st3" width="105.3" height="49"/>
				<rect x="638.7" class="st3" width="105.3" height="119"/>
			</g>
			<g id="xAxis" transform="translate(0,560)">
				<path class="st4" d="M0.5,0.5h745"/>
				<g transform="translate(53.642282650325555,0)">
					<line class="st4" x1="0" y1="0" x2="0" y2="6"/>
					<text transform="matrix(1 0 0 1 -15.5689 16.1)" class="st5 st6">2021-2</text>
				</g>
				<g transform="translate(159.92818843355036,0)">
					<line class="st4" x1="0" y1="0" x2="0" y2="6"/>
					<text transform="matrix(1 0 0 1 -15.5688 16.1)" class="st5 st6">2022-1</text>
				</g>
				<g transform="translate(266.21409421677515,0)">
					<line class="st4" x1="0" y1="0" x2="0" y2="6"/>
					<text transform="matrix(1 0 0 1 -15.5688 16.1)" class="st5 st6">2022-2</text>
				</g>
				<g transform="translate(372.5,0)">
					<line class="st4" x1="0" y1="0" x2="0" y2="6"/>
					<text transform="matrix(1 0 0 1 -15.5688 16.1)" class="st5 st6">2023-1</text>
				</g>
				<g transform="translate(478.7859057832248,0)">
					<line class="st4" x1="0" y1="0" x2="0" y2="6"/>
					<text transform="matrix(1 0 0 1 -15.5689 16.1)" class="st5 st6">2023-2</text>
				</g>
				<g transform="translate(585.0718115664496,0)">
					<line class="st4" x1="0" y1="0" x2="0" y2="6"/>
					<text transform="matrix(1 0 0 1 -15.5689 16.1)" class="st5 st6">2024-1</text>
				</g>
				<g transform="translate(691.3577173496744,0)">
					<line class="st4" x1="0" y1="0" x2="0" y2="6"/>
					<text transform="matrix(1 0 0 1 -15.5689 16.1)" class="st5 st6">2024-2</text>
				</g>
			</g>
			<g id="yAxis">
				<path class="st4" d="M0.5,560.5V0.5"/>
				<g transform="translate(0,560.5)">
					<line class="st4" x1="0" y1="0" x2="-6" y2="0"/>
					<text transform="matrix(1 0 0 1 -14.5615 3.2)" class="st5 st6">0</text>
				</g>
				<g transform="translate(0,513.8333333333333)">
					<line class="st4" x1="0" y1="0" x2="-6" y2="0"/>
					<text transform="matrix(1 0 0 1 -20.123 3.2)" class="st5 st6">20</text>
				</g>
				<g transform="translate(0,467.1666666666667)">
					<line class="st4" x1="0" y1="0" x2="-6" y2="0"/>
					<text transform="matrix(1 0 0 1 -20.123 3.2)" class="st5 st6">40</text>
				</g>
				<g transform="translate(0,420.5)">
					<line class="st4" x1="0" y1="0" x2="-6" y2="0"/>
					<text transform="matrix(1 0 0 1 -20.123 3.2)" class="st5 st6">60</text>
				</g>
				<g transform="translate(0,373.83333333333337)">
					<line class="st4" x1="0" y1="0" x2="-6" y2="0"/>
					<text transform="matrix(1 0 0 1 -20.123 3.2)" class="st5 st6">80</text>
				</g>
				<g transform="translate(0,327.16666666666663)">
					<line class="st4" x1="0" y1="0" x2="-6" y2="0"/>
					<text transform="matrix(1 0 0 1 -25.6846 3.2)" class="st5 st6">100</text>
				</g>
				<g transform="translate(0,280.5)">
					<line class="st4" x1="0" y1="0" x2="-6" y2="0"/>
					<text transform="matrix(1 0 0 1 -25.6846 3.2)" class="st5 st6">120</text>
				</g>
				<g transform="translate(0,233.83333333333331)">
					<line class="st4" x1="0" y1="0" x2="-6" y2="0"/>
					<text transform="matrix(1 0 0 1 -25.6846 3.2)" class="st5 st6">140</text>
				</g>
				<g transform="translate(0,187.16666666666669)">
					<line class="st4" x1="0" y1="0" x2="-6" y2="0"/>
					<text transform="matrix(1 0 0 1 -25.6846 3.2)" class="st5 st6">160</text>
				</g>
				<g transform="translate(0,140.5)">
					<line class="st4" x1="0" y1="0" x2="-6" y2="0"/>
					<text transform="matrix(1 0 0 1 -25.6846 3.2)" class="st5 st6">180</text>
				</g>
				<g transform="translate(0,93.83333333333331)">
					<line class="st4" x1="0" y1="0" x2="-6" y2="0"/>
					<text transform="matrix(1 0 0 1 -25.6846 3.2)" class="st5 st6">200</text>
				</g>
				<g transform="translate(0,47.166666666666686)">
					<line class="st4" x1="0" y1="0" x2="-6" y2="0"/>
					<text transform="matrix(1 0 0 1 -25.6846 3.2)" class="st5 st6">220</text>
				</g>
				<g transform="translate(0,0.5)">
					<line class="st4" x1="0" y1="0" x2="-6" y2="0"/>
					<text transform="matrix(1 0 0 1 -25.6846 3.2)" class="st5 st6">240</text>
				</g>
			</g>
			<text transform="matrix(1 0 0 1 690.9648 556)" class="st7 st8 st9">Semestre</text>
		</g>
	</g>
	<g id="grid">
		<rect x="0" class="st10" width="805" height="600"/>
	</g>
</g>
</svg>
